<svg xmlns="http://www.w3.org/2000/svg" xmlns:xlink="http://www.w3.org/1999/xlink" width="70" zoomAndPan="magnify" viewBox="0 0 52.5 52.499999" height="70" preserveAspectRatio="xMidYMid meet" version="1.0"><defs><clipPath id="eee98fa5ed"><path d="M 1.203125 1.203125 L 50.976562 1.203125 L 50.976562 50.976562 L 1.203125 50.976562 Z M 1.203125 1.203125 " clip-rule="nonzero"/></clipPath></defs><g clip-path="url(#eee98fa5ed)"><path fill="#ffffff" d="M 26.085938 1.203125 C 12.363281 1.203125 1.203125 12.363281 1.203125 26.085938 C 1.203125 39.8125 12.363281 50.972656 26.085938 50.972656 C 39.8125 50.972656 50.972656 39.8125 50.972656 26.085938 C 50.972656 12.363281 39.8125 1.203125 26.085938 1.203125 Z M 26.085938 4.675781 C 37.933594 4.675781 47.5 14.242188 47.5 26.085938 C 47.5 37.933594 37.933594 47.5 26.085938 47.5 C 14.242188 47.5 4.675781 37.933594 4.675781 26.085938 C 4.675781 14.242188 14.242188 4.675781 26.085938 4.675781 Z M 26.085938 4.675781 " fill-opacity="1" fill-rule="nonzero"/></g><path fill="#31e981" d="M 26.085938 4.675781 C 37.933594 4.675781 47.5 14.242188 47.5 26.085938 C 47.5 37.933594 37.933594 47.5 26.085938 47.5 C 14.242188 47.5 4.675781 37.933594 4.675781 26.085938 C 4.675781 14.242188 14.242188 4.675781 26.085938 4.675781 Z M 26.085938 4.675781 " fill-opacity="1" fill-rule="nonzero"/><path fill="#ffffff" d="M 31.875 34.105469 C 31.433594 33.667969 30.929688 33.273438 30.484375 32.917969 C 29.648438 32.429688 28.695312 32.230469 28.011719 32.917969 L 27.460938 33.46875 L 32.121094 38.128906 L 32.550781 37.699219 C 33.511719 36.246094 32.84375 35.070312 31.875 34.105469 Z M 18.382812 20.621094 C 17.207031 19.4375 15.453125 18.515625 14.429688 19.578125 L 14 20.007812 L 18.660156 24.667969 L 19.210938 24.117188 C 19.894531 23.433594 19.820312 22.398438 19.210938 21.640625 C 19 21.308594 18.714844 20.953125 18.382812 20.621094 Z M 13.554688 20.453125 L 13.265625 20.742188 C 10.679688 23.328125 13.261719 29.804688 17.792969 34.335938 C 21.046875 37.59375 25.3125 39.84375 28.410156 39.890625 C 28.449219 39.890625 28.484375 39.890625 28.523438 39.890625 C 29.6875 39.886719 30.679688 39.566406 31.386719 38.863281 L 31.675781 38.574219 L 27.015625 33.914062 L 26.730469 34.195312 C 25.820312 35.105469 23.167969 33.363281 20.964844 31.160156 C 18.765625 28.960938 17.023438 26.304688 17.929688 25.398438 L 18.214844 25.113281 Z M 13.554688 20.453125 " fill-opacity="1" fill-rule="nonzero"/><path fill="#ffffff" d="M 24.886719 12.285156 C 23.832031 12.273438 22.746094 12.375 21.632812 12.605469 C 21.492188 12.636719 21.363281 12.691406 21.246094 12.769531 C 21.128906 12.851562 21.03125 12.949219 20.953125 13.066406 C 20.875 13.1875 20.824219 13.316406 20.796875 13.453125 C 20.769531 13.59375 20.769531 13.734375 20.800781 13.871094 C 20.828125 14.011719 20.882812 14.140625 20.964844 14.257812 C 21.042969 14.375 21.140625 14.472656 21.261719 14.550781 C 21.378906 14.628906 21.507812 14.679688 21.648438 14.707031 C 21.789062 14.734375 21.925781 14.734375 22.066406 14.703125 C 32.347656 12.574219 39.8125 23.410156 37.269531 30.617188 C 37.222656 30.75 37.203125 30.886719 37.210938 31.03125 C 37.21875 31.171875 37.253906 31.308594 37.316406 31.433594 C 37.375 31.5625 37.460938 31.675781 37.566406 31.769531 C 37.671875 31.863281 37.792969 31.933594 37.925781 31.984375 C 38.058594 32.03125 38.195312 32.050781 38.339844 32.042969 C 38.480469 32.035156 38.617188 32 38.742188 31.9375 C 38.871094 31.878906 38.984375 31.792969 39.078125 31.6875 C 39.171875 31.582031 39.246094 31.460938 39.292969 31.328125 C 42.171875 23.15625 35.085938 12.398438 24.886719 12.285156 Z M 24.511719 19.046875 C 24.3125 19.046875 24.113281 19.050781 23.910156 19.066406 C 23.476562 19.09375 23.035156 19.152344 22.589844 19.242188 C 22.449219 19.273438 22.320312 19.328125 22.203125 19.40625 C 22.085938 19.488281 21.988281 19.585938 21.910156 19.703125 C 21.832031 19.824219 21.78125 19.953125 21.753906 20.09375 C 21.726562 20.230469 21.730469 20.371094 21.757812 20.511719 C 21.785156 20.648438 21.839844 20.777344 21.921875 20.894531 C 22 21.011719 22.101562 21.109375 22.21875 21.1875 C 22.335938 21.265625 22.46875 21.316406 22.605469 21.34375 C 22.746094 21.371094 22.886719 21.371094 23.023438 21.339844 C 28.582031 20.1875 32.550781 26.136719 31.226562 29.902344 C 31.179688 30.035156 31.160156 30.175781 31.167969 30.316406 C 31.175781 30.457031 31.210938 30.59375 31.273438 30.722656 C 31.332031 30.847656 31.417969 30.960938 31.523438 31.054688 C 31.628906 31.148438 31.75 31.222656 31.882812 31.269531 C 32.015625 31.316406 32.15625 31.335938 32.296875 31.328125 C 32.4375 31.320312 32.574219 31.285156 32.703125 31.222656 C 32.828125 31.164062 32.941406 31.078125 33.035156 30.972656 C 33.128906 30.867188 33.203125 30.746094 33.25 30.613281 C 35.027344 25.550781 30.6875 19.078125 24.511719 19.046875 Z M 24.511719 19.046875 " fill-opacity="1" fill-rule="nonzero"/></svg>